# xmcd
#
# Track frame offsets:
#	150
#	13113
#	24243
#	38571
#	49077
#	64401
#	73563
#	89621
#	102576
#	115165
#	123671
#	138349
#
# Disc length: 1964 seconds
#
# Revision: 1
# Processed by: cddbd v1.5.2PL0 Copyright (c) Steve Scherf et al.
# Submitted via: audiograbber 1.83.01
#
DISCID=a707aa0c
DTITLE=Dolly Parton - My Blue Ridge Mountain Boy
DYEAR=1969
DGENRE=Country
TTITLE0=In The Ghetto
TTITLE1=Games People Play
TTITLE2='Til Death Do Us Part
TTITLE3=Big Wind
TTITLE4=Evening Shade
TTITLE5=I'm Fed Up With You
TTITLE6=My Blue Ridge Mountain Boy
TTITLE7=Daddy
TTITLE8=We Had All The Good Things Going
TTITLE9=The Monkey's Tale
TTITLE10=Gypsy, Joe And Me
TTITLE11=Home For Pete's Sake
EXTD=
EXTT0=
EXTT1=
EXTT2=
EXTT3=
EXTT4=
EXTT5=
EXTT6=
EXTT7=
EXTT8=
EXTT9=
EXTT10=
EXTT11=
PLAYORDER=
